<?xml version="1.0" encoding="UTF-8" standalone="no"?>
<svg
   xmlns:dc="http://purl.org/dc/elements/1.1/"
   xmlns:cc="http://creativecommons.org/ns#"
   xmlns:rdf="http://www.w3.org/1999/02/22-rdf-syntax-ns#"
   xmlns:svg="http://www.w3.org/2000/svg"
   xmlns="http://www.w3.org/2000/svg"
   xmlns:sodipodi="http://sodipodi.sourceforge.net/DTD/sodipodi-0.dtd"
   xmlns:inkscape="http://www.inkscape.org/namespaces/inkscape"
   version="1.1"
   id="Layer_1"
   x="0px"
   y="0px"
   viewBox="0 0 600.00001 177.67372"
   xml:space="preserve"
   sodipodi:docname="UBEEQO_BLUE_EC_LOGO.svg"
   width="600"
   height="177.67372"
   inkscape:version="1.0.1 (c497b03c, 2020-09-10)"><metadata
   id="metadata880"><rdf:RDF><cc:Work
       rdf:about=""><dc:format>image/svg+xml</dc:format><dc:type
         rdf:resource="http://purl.org/dc/dcmitype/StillImage" /></cc:Work></rdf:RDF></metadata><defs
   id="defs878" /><sodipodi:namedview
   pagecolor="#ffffff"
   bordercolor="#666666"
   borderopacity="1"
   objecttolerance="10"
   gridtolerance="10"
   guidetolerance="10"
   inkscape:pageopacity="0"
   inkscape:pageshadow="2"
   inkscape:window-width="1920"
   inkscape:window-height="1080"
   id="namedview876"
   showgrid="false"
   inkscape:zoom="0.89440551"
   inkscape:cx="266.95"
   inkscape:cy="111.74999"
   inkscape:window-x="0"
   inkscape:window-y="0"
   inkscape:window-maximized="0"
   inkscape:current-layer="Layer_1" />
<style
   type="text/css"
   id="style833">
	.st0{fill:#59C0CD;}
</style>
<g
   id="g873"
   transform="matrix(1.123806,0,0,1.123806,-34.500844,-347.48082)"
   style="stroke-width:0.889833">
	<path
   class="st0"
   d="M 30.7,428 H 564.6 V 309.2 H 30.7 Z m 381.8,-85.8 c 7.2,0 13.4,2.6 18.5,7.7 5.2,5.2 7.8,11.3 7.8,18.6 0,6.1 -1.8,11.4 -5.5,15.9 l 5.5,5.5 -5.1,5.1 -5.5,-5.5 c -4.6,3.5 -10,5.2 -16.1,5.2 -6.5,0 -12.4,-2.3 -17.6,-6.8 -5.7,-5 -8.6,-11.6 -8.6,-19.7 0,-7.1 2.6,-13.2 7.8,-18.3 5.3,-5.1 11.5,-7.7 18.8,-7.7 m 91.2,0 c 7.2,0 13.4,2.6 18.5,7.7 5.2,5.2 7.8,11.3 7.8,18.6 0,7.3 -2.6,13.5 -7.8,18.5 -5.2,5.1 -11.5,7.6 -18.9,7.6 -6.5,0 -12.4,-2.3 -17.6,-6.8 -5.7,-5 -8.6,-11.6 -8.6,-19.7 0,-7.1 2.6,-13.2 7.8,-18.3 5.2,-5 11.5,-7.6 18.8,-7.6 m -438.4,1 h 7.6 v 30.4 c 0,4.3 0.7,7.5 2.1,9.5 2.1,2.9 5.1,4.4 8.9,4.4 3.9,0 6.9,-1.5 9,-4.4 1.4,-1.9 2.1,-5.1 2.1,-9.5 v -30.4 h 7.6 v 32.6 c 0,5.3 -1.7,9.7 -5,13.2 -3.7,3.8 -8.3,5.8 -13.8,5.8 -5.4,0 -10,-1.9 -13.7,-5.8 -3.3,-3.5 -5,-7.8 -5,-13.2 v -32.6 z m 87,0 h 7.6 c 3.4,0 12.5,0.3 14.5,0.8 2,0.5 3.7,1.4 5.1,2.6 1.4,1.3 2.5,2.9 3.4,4.8 0.9,1.9 1.3,3.9 1.3,5.9 0,3.6 -1.4,6.7 -4.2,9.2 2.7,0.9 4.8,2.5 6.4,4.8 1.6,2.3 2.4,4.9 2.4,7.9 0,3.9 -1.4,7.3 -4.2,10 -1.7,1.7 -3.6,2.8 -5.7,3.5 -2.3,0.6 -5.2,0.9 -8.6,0.9 h -17.9 v -50.4 z m 80.8,0 h 36.4 v 7.2 H 240.7 V 365 h 19.7 v 7.2 h -19.7 v 14.5 h 28.8 v 7.2 h -36.4 z m 79.9,0 h 36.4 v 7.2 H 320.6 V 365 h 19.7 v 7.2 h -19.7 v 14.5 h 28.8 v 7.2 H 313 Z m 99.4,6.2 c -5.3,0 -9.7,1.8 -13.3,5.5 -3.6,3.6 -5.4,8.1 -5.4,13.4 0,5.6 1.9,10.2 5.6,13.8 3.7,3.6 8.1,5.4 12.9,5.4 4.1,0 7.7,-1.1 10.8,-3.3 l -5.3,-5.3 5.1,-5.1 5.2,5.2 c 2.1,-3.1 3.1,-6.7 3.1,-10.7 0,-5.4 -1.8,-9.9 -5.4,-13.5 -3.6,-3.6 -8,-5.4 -13.3,-5.4 z m 91.2,0 c -5.3,0 -9.7,1.8 -13.3,5.5 -3.6,3.6 -5.4,8.1 -5.4,13.4 0,5.6 1.9,10.2 5.6,13.8 3.7,3.6 8.1,5.4 12.9,5.4 5.3,0 9.8,-1.8 13.4,-5.5 3.7,-3.7 5.5,-8.2 5.5,-13.6 0,-5.4 -1.8,-9.9 -5.4,-13.5 -3.6,-3.7 -8.1,-5.5 -13.3,-5.5 M 160,350.2 v 14.7 h 8.8 c 2.8,0 4.9,-0.6 6.2,-1.9 1.3,-1.3 2,-3.1 2,-5.6 0,-2.4 -0.7,-4.2 -2,-5.4 -1.4,-1.2 -3.3,-1.8 -5.9,-1.8 z m 0,21.1 v 15.3 h 11.1 c 3.5,0 6,-0.7 7.6,-2 1.7,-1.5 2.6,-3.3 2.6,-5.6 0,-2.2 -0.8,-4 -2.5,-5.5 -1.6,-1.5 -4.4,-2.2 -8.6,-2.2 z"
   id="path835"
   style="stroke-width:0.889833" />
	<g
   id="g871"
   style="stroke-width:0.889833">
		<g
   id="g869"
   style="stroke-width:0.889833">
			<path
   class="st0"
   d="m 125.2,467.1 c -0.5,0 -1,-0.3 -1.2,-0.8 l -1.1,-2.7 h -7.7 l -1.1,2.7 c -0.2,0.5 -0.6,0.8 -1.2,0.8 -0.7,0 -1.3,-0.6 -1.3,-1.3 0,-0.1 0,-0.3 0.1,-0.5 L 117,452 c 0.3,-0.8 1.1,-1.3 1.9,-1.3 0.8,0 1.6,0.5 1.9,1.3 l 5.3,13.3 c 0.1,0.2 0.1,0.3 0.1,0.5 0.3,0.6 -0.2,1.3 -1,1.3 z m -6,-13.7 -3.1,8.2 h 6.3 z"
   id="path837"
   style="stroke-width:0.889833" />
			<path
   class="st0"
   d="m 156.5,467 h -8.3 c -0.9,0 -1.6,-0.7 -1.6,-1.6 v -12.9 c 0,-0.9 0.7,-1.6 1.6,-1.6 h 8.3 c 0.6,0 1,0.5 1,1.1 0,0.6 -0.5,1 -1,1 h -7.4 v 4.7 h 7.3 c 0.6,0 1,0.5 1,1.1 0,0.6 -0.5,1 -1,1 h -7.3 v 5 h 7.4 c 0.6,0 1,0.5 1,1 0,0.7 -0.4,1.2 -1,1.2 z"
   id="path839"
   style="stroke-width:0.889833" />
			<path
   class="st0"
   d="m 172.9,467.3 c -4.5,0 -6.7,-2.6 -6.7,-6.6 V 452 c 0,-0.6 0.5,-1.2 1.2,-1.2 0.6,0 1.2,0.5 1.2,1.2 v 8.7 c 0,2.8 1.5,4.5 4.3,4.5 2.8,0 4.3,-1.8 4.3,-4.5 V 452 c 0,-0.6 0.5,-1.2 1.2,-1.2 0.6,0 1.2,0.5 1.2,1.2 v 8.7 c 0,4 -2.2,6.6 -6.7,6.6 z"
   id="path841"
   style="stroke-width:0.889833" />
			<path
   class="st0"
   d="m 196.9,460.6 3.1,4.8 c 0.1,0.2 0.2,0.4 0.2,0.6 0,0.6 -0.5,1.2 -1.2,1.2 -0.4,0 -0.7,-0.2 -1,-0.6 l -3.6,-5.8 h -3 v 5.1 c 0,0.6 -0.5,1.2 -1.2,1.2 -0.6,0 -1.2,-0.5 -1.2,-1.2 v -13.4 c 0,-0.9 0.7,-1.6 1.6,-1.6 h 5.2 c 3,0 5.1,1.9 5.1,4.9 0,2.9 -2,4.5 -4,4.8 z m -5.5,-7.5 v 5.6 h 4 c 1.8,0 3,-1.2 3,-2.8 0,-1.7 -1.2,-2.8 -3,-2.8 z"
   id="path843"
   style="stroke-width:0.889833" />
			<path
   class="st0"
   d="m 217,467.3 c -4.8,0 -8.1,-3.5 -8.1,-8.3 0,-4.8 3.3,-8.3 8.1,-8.3 4.8,0 8.1,3.5 8.1,8.3 -0.1,4.7 -3.4,8.3 -8.1,8.3 z m 0,-14.5 c -3.4,0 -5.6,2.6 -5.6,6.2 0,3.5 2.2,6.2 5.6,6.2 3.4,0 5.6,-2.6 5.6,-6.2 0,-3.6 -2.2,-6.2 -5.6,-6.2 z"
   id="path845"
   style="stroke-width:0.889833" />
			<path
   class="st0"
   d="m 240.5,460.8 h -4.3 v 5.1 c 0,0.6 -0.5,1.2 -1.2,1.2 -0.6,0 -1.2,-0.5 -1.2,-1.2 v -13.4 c 0,-0.9 0.7,-1.6 1.6,-1.6 h 5.2 c 3.3,0 5.1,2.3 5.1,4.9 0,2.6 -2,5 -5.2,5 z m -0.3,-7.7 h -4 v 5.6 h 4 c 1.8,0 3,-1.2 3,-2.8 -0.1,-1.7 -1.3,-2.8 -3,-2.8 z"
   id="path847"
   style="stroke-width:0.889833" />
			<path
   class="st0"
   d="m 267,453.1 c 0.2,0.2 0.3,0.5 0.3,0.8 0,0.6 -0.5,1.1 -1.1,1.1 -0.3,0 -0.6,-0.1 -0.8,-0.4 -0.9,-1.1 -2.4,-1.8 -3.8,-1.8 -3.4,0 -5.9,2.6 -5.9,6.2 0,3.6 2.5,6.2 5.9,6.2 1.4,0 2.8,-0.6 3.8,-1.7 0.2,-0.2 0.5,-0.4 0.8,-0.4 0.6,0 1.1,0.5 1.1,1.1 0,0.3 -0.1,0.6 -0.3,0.7 -1.2,1.3 -3,2.4 -5.5,2.4 -4.7,0 -8.3,-3.4 -8.3,-8.3 0,-4.9 3.7,-8.3 8.3,-8.3 2.5,0 4.2,1 5.5,2.4 z"
   id="path849"
   style="stroke-width:0.889833" />
			<path
   class="st0"
   d="m 288.1,467.1 c -0.5,0 -1,-0.3 -1.2,-0.8 l -1.1,-2.7 h -7.7 l -1.1,2.7 c -0.2,0.5 -0.6,0.8 -1.2,0.8 -0.7,0 -1.3,-0.6 -1.3,-1.3 0,-0.1 0,-0.3 0.1,-0.5 l 5.3,-13.3 c 0.3,-0.8 1.1,-1.3 1.9,-1.3 0.8,0 1.6,0.5 1.9,1.3 l 5.3,13.3 c 0.1,0.2 0.1,0.3 0.1,0.5 0.2,0.6 -0.3,1.3 -1,1.3 z m -6.1,-13.7 -3.1,8.2 h 6.3 z"
   id="path851"
   style="stroke-width:0.889833" />
			<path
   class="st0"
   d="m 305.4,460.6 3.1,4.8 c 0.1,0.2 0.2,0.4 0.2,0.6 0,0.6 -0.5,1.2 -1.2,1.2 -0.4,0 -0.7,-0.2 -1,-0.6 l -3.6,-5.8 h -3 v 5.1 c 0,0.6 -0.5,1.2 -1.2,1.2 -0.6,0 -1.2,-0.5 -1.2,-1.2 v -13.4 c 0,-0.9 0.7,-1.6 1.6,-1.6 h 5.2 c 3,0 5.1,1.9 5.1,4.9 0,2.9 -1.9,4.5 -4,4.8 z m -5.4,-7.5 v 5.6 h 4 c 1.8,0 3,-1.2 3,-2.8 0,-1.7 -1.2,-2.8 -3,-2.8 z"
   id="path853"
   style="stroke-width:0.889833" />
			<path
   class="st0"
   d="m 343.2,453.1 c 0.2,0.2 0.3,0.5 0.3,0.8 0,0.6 -0.5,1.1 -1.1,1.1 -0.3,0 -0.6,-0.1 -0.8,-0.4 -0.9,-1.1 -2.4,-1.8 -3.8,-1.8 -3.4,0 -5.9,2.6 -5.9,6.2 0,3.6 2.5,6.2 5.9,6.2 1.4,0 2.8,-0.6 3.8,-1.7 0.2,-0.2 0.5,-0.4 0.8,-0.4 0.6,0 1.1,0.5 1.1,1.1 0,0.3 -0.1,0.6 -0.3,0.7 -1.2,1.3 -3,2.4 -5.5,2.4 -4.7,0 -8.3,-3.4 -8.3,-8.3 0,-4.9 3.7,-8.3 8.3,-8.3 2.6,0 4.3,1 5.5,2.4 z"
   id="path855"
   style="stroke-width:0.889833" />
			<path
   class="st0"
   d="m 359.6,467.3 c -4.8,0 -8.1,-3.5 -8.1,-8.3 0,-4.8 3.3,-8.3 8.1,-8.3 4.8,0 8.1,3.5 8.1,8.3 -0.1,4.7 -3.4,8.3 -8.1,8.3 z m 0,-14.5 c -3.4,0 -5.6,2.6 -5.6,6.2 0,3.5 2.2,6.2 5.6,6.2 3.4,0 5.6,-2.6 5.6,-6.2 0,-3.6 -2.2,-6.2 -5.6,-6.2 z"
   id="path857"
   style="stroke-width:0.889833" />
			<path
   class="st0"
   d="m 391.3,467.1 c -0.7,0 -1.2,-0.5 -1.2,-1.2 v -11.6 l -5.1,12.4 c -0.1,0.2 -0.3,0.4 -0.6,0.4 -0.2,0 -0.5,-0.2 -0.6,-0.4 l -5.1,-12.4 v 11.6 c 0,0.6 -0.5,1.2 -1.2,1.2 -0.6,0 -1.2,-0.5 -1.2,-1.2 v -13.4 c 0,-0.9 0.8,-1.7 1.7,-1.7 0.9,0 1.8,0.3 2.1,1.2 l 4.2,10.3 4.2,-10.3 c 0.3,-0.7 1,-1.2 1.8,-1.2 1.1,0 2.1,0.6 2.1,1.7 v 13.4 c 0.1,0.7 -0.4,1.2 -1.1,1.2 z"
   id="path859"
   style="stroke-width:0.889833" />
			<path
   class="st0"
   d="m 408.6,460.8 h -4.3 v 5.1 c 0,0.6 -0.5,1.2 -1.2,1.2 -0.6,0 -1.2,-0.5 -1.2,-1.2 v -13.4 c 0,-0.9 0.7,-1.6 1.6,-1.6 h 5.2 c 3.3,0 5.1,2.3 5.1,4.9 0,2.6 -2,5 -5.2,5 z m -0.3,-7.7 h -4 v 5.6 h 4 c 1.8,0 3,-1.2 3,-2.8 -0.1,-1.7 -1.3,-2.8 -3,-2.8 z"
   id="path861"
   style="stroke-width:0.889833" />
			<path
   class="st0"
   d="m 432.4,467.1 c -0.5,0 -1,-0.3 -1.2,-0.8 l -1.1,-2.7 h -7.7 l -1.1,2.7 c -0.2,0.5 -0.6,0.8 -1.2,0.8 -0.7,0 -1.3,-0.6 -1.3,-1.3 0,-0.1 0,-0.3 0.1,-0.5 l 5.3,-13.3 c 0.3,-0.8 1.1,-1.3 1.9,-1.3 0.8,0 1.6,0.5 1.9,1.3 l 5.3,13.3 c 0.1,0.2 0.1,0.3 0.1,0.5 0.2,0.6 -0.3,1.3 -1,1.3 z m -6.1,-13.7 -3.1,8.2 h 6.3 z"
   id="path863"
   style="stroke-width:0.889833" />
			<path
   class="st0"
   d="m 454,467.1 c -0.5,0 -0.9,-0.2 -1.2,-0.6 l -8.5,-11.7 v 11.1 c 0,0.6 -0.5,1.2 -1.2,1.2 -0.6,0 -1.2,-0.5 -1.2,-1.2 v -13.7 c 0,-0.8 0.6,-1.5 1.5,-1.5 0.5,0 1,0.2 1.3,0.6 l 8.4,11.4 V 452 c 0,-0.6 0.5,-1.2 1.2,-1.2 0.6,0 1.2,0.5 1.2,1.2 v 13.8 c -0.1,0.6 -0.7,1.3 -1.5,1.3 z"
   id="path865"
   style="stroke-width:0.889833" />
			<path
   class="st0"
   d="m 476.9,452.5 -5.2,7.7 v 5.7 c 0,0.6 -0.5,1.2 -1.2,1.2 -0.6,0 -1.2,-0.5 -1.2,-1.2 v -5.7 l -5.2,-7.7 c -0.1,-0.2 -0.2,-0.4 -0.2,-0.6 0,-0.6 0.4,-1.1 1.1,-1.1 0.4,0 0.8,0.2 1,0.5 l 4.5,6.8 4.4,-6.8 c 0.2,-0.3 0.6,-0.5 0.9,-0.5 0.6,0 1.2,0.5 1.2,1.1 0.1,0.2 0.1,0.5 -0.1,0.6 z"
   id="path867"
   style="stroke-width:0.889833" />
		</g>
	</g>
</g>
</svg>
